<?xml version="1.0" encoding="UTF-8" standalone="no"?>
<svg width="304px" height="52px" viewBox="0 0 304 52" version="1.1" xmlns="http://www.w3.org/2000/svg" xmlns:xlink="http://www.w3.org/1999/xlink" xmlns:sketch="http://www.bohemiancoding.com/sketch/ns">
    <title>Slice 1</title>
    <description>Created with Sketch (http://www.bohemiancoding.com/sketch)</description>
    <defs></defs>
    <g id="Page-1" stroke="none" stroke-width="1" fill="none" fill-rule="evenodd" sketch:type="MSPage">
        <g id="Logo-en-blanco-2" sketch:type="MSLayerGroup" transform="translate(1.000000, 1.000000)" fill="#F1F0EC">
            <path d="M20.5231047,49.8646429 L1.33405755,38.7903571 C0.362885377,38.2310714 -0.235968396,37.1953571 -0.235968396,36.0725 L-0.234539151,13.9260714 C-0.234539151,12.8053571 0.362885377,11.7696429 1.33405755,11.2082143 L20.5231047,0.135357143 C21.4957061,-0.425357143 22.6919844,-0.425357143 23.662442,0.135357143 L42.8529184,11.2082143 C44.3550552,12.0760714 44.8681542,13.9932143 44.001317,15.4953571 C43.1344797,16.9946429 41.2157179,17.5075 39.7121519,16.6425 L23.6931708,7.39821429 C22.8098972,6.88678571 21.3777934,6.88678571 20.4938052,7.39821429 L7.6420316,14.8160714 C6.76018726,15.3239286 6.04270613,16.5639286 6.04270613,17.5839286 L6.04270613,32.4175 C6.04270613,33.4360714 6.75875802,34.6760714 7.6420316,35.1853571 L20.4938052,42.6017857 C21.3770788,43.1096429 22.8091825,43.1096429 23.6931708,42.6017857 L36.5370835,35.1882143 C37.4203571,34.6803571 38.1321212,33.4410714 38.1299774,32.4203571 L38.1199726,29.9832143 C38.1156849,28.9632143 37.2852934,28.1375 36.2662415,28.1375 L16.4597604,28.1375 C14.7260858,28.1375 13.3204231,26.7325 13.3204231,24.9996429 C13.3204231,23.2675 14.7260858,21.8625 16.4597604,21.8625 L41.2385858,21.8625 C42.9665434,21.8625 44.3707769,23.2589286 44.3779231,24.9875 L44.3779231,36.0617857 C44.3822108,37.1875 43.8269491,38.2282143 42.8522038,38.7896429 L23.6617274,49.8646429 C23.175784,50.1453571 22.6341,50.2860714 22.0931307,50.2860714 C21.5500175,50.2860714 21.0090481,50.1453571 20.5231047,49.8646429" id="Fill-37" sketch:type="MSShapeGroup"></path>
            <path d="M76.0057634,39.4907857 C67.5389144,39.4907857 61.4338932,33.8743571 61.4338932,25.5243571 C61.4338932,17.0257857 67.7275748,11.5943571 75.8171031,11.5943571 C79.9762068,11.5943571 83.8344545,12.9807857 86.0440677,15.1157857 L81.9993035,19.7193571 C80.7630064,18.2979286 78.6269993,17.2500714 76.0436384,17.2500714 C71.5479474,17.2500714 68.2513932,20.7686429 68.2513932,25.5243571 C68.2513932,30.3915 71.1363248,33.8736429 76.3423507,33.8736429 C77.841629,33.8736429 79.2272823,33.6493571 80.3506691,33.1622143 L80.3506691,28.3322143 L75.2939993,28.3322143 L75.2939993,23.1650714 L86.2312988,23.1650714 L86.2312988,37.2050714 C83.6457941,38.5543571 80.087688,39.4907857 76.0057634,39.4907857" id="Fill-38" sketch:type="MSShapeGroup"></path>
            <path d="M104.147532,27.3590714 C104.147532,25.4126429 102.911949,23.8026429 100.476515,23.8026429 C98.1161165,23.8026429 96.3938759,25.4497857 96.2430906,27.3590714 L104.147532,27.3590714 Z M109.767324,31.1790714 L96.2438052,31.1790714 C96.4310363,33.2376429 98.4912934,34.6969286 100.701621,34.6969286 C102.650397,34.6969286 103.998175,33.8740714 104.823565,32.7512143 L109.093435,35.4455 C107.33189,37.9919286 104.410513,39.4147857 100.626586,39.4147857 C95.0089373,39.4147857 90.3624608,35.8576429 90.3624608,29.5676429 C90.3624608,23.4655 94.7831165,19.5719286 100.440069,19.5719286 C105.946237,19.5719286 109.805199,23.3526429 109.805199,29.7183571 C109.804484,30.2047857 109.804484,30.7297857 109.767324,31.1790714 L109.767324,31.1790714 Z" id="Fill-39" sketch:type="MSShapeGroup"></path>
            <path d="M121.262887,24.7753571 L121.262887,31.8889286 C121.262887,33.6117857 121.825295,34.5103571 123.58541,34.5103571 C124.184264,34.5103571 124.933903,34.3982143 125.383401,34.2103571 L125.458436,38.7039286 C124.635191,39.0039286 123.210948,39.2660714 121.899616,39.2660714 C116.917981,39.2660714 115.270061,36.6067857 115.270061,32.6389286 L115.270061,24.7753571 L112.273649,24.7753571 L112.273649,20.1710714 L115.232901,20.1710714 L115.232901,15.2660714 L121.263601,15.2660714 L121.263601,20.1710714 L125.646382,20.1710714 L125.646382,24.7753571 L121.262887,24.7753571 Z" id="Fill-40" sketch:type="MSShapeGroup"></path>
            <path d="M129.168042,10.5107143 L135.385974,10.5107143 L135.385974,38.8171429 L129.168042,38.8171429 L129.168042,10.5107143 Z" id="Fill-41" sketch:type="MSShapeGroup"></path>
            <path d="M140.893571,20.1707143 L147.037896,20.1707143 L147.037896,38.8164286 L140.893571,38.8164286 L140.893571,20.1707143 Z M143.967163,17.5864286 C141.981226,17.5864286 140.444073,16.0521429 140.444073,14.2157143 C140.444073,12.4185714 141.980512,10.8464286 143.967163,10.8464286 C145.914509,10.8464286 147.487394,12.3435714 147.487394,14.2157143 C147.487394,16.1257143 145.914509,17.5864286 143.967163,17.5864286 L143.967163,17.5864286 Z" id="Fill-42" sketch:type="MSShapeGroup"></path>
            <path d="M165.319301,26.1983571 C164.645412,25.2997857 163.296919,24.6997857 162.059907,24.6997857 C159.475117,24.6997857 157.751447,26.9083571 157.751447,29.4933571 C157.751447,32.0769286 159.437242,34.2483571 162.134228,34.2483571 C163.370525,34.2483571 164.719018,33.7605 165.468657,32.8626429 L168.878122,37.0183571 C167.341683,38.5169286 164.719018,39.4147857 161.984872,39.4147857 C156.103528,39.4147857 151.533516,35.6705 151.533516,29.4926429 C151.533516,23.4269286 156.140688,19.5705 161.946997,19.5705 C164.607537,19.5705 167.416719,20.5805 168.878122,22.0790714 L165.319301,26.1983571 Z" id="Fill-43" sketch:type="MSShapeGroup"></path>
            <path d="M184.725737,27.3590714 C184.725737,25.4126429 183.489439,23.8026429 181.053291,23.8026429 C178.692892,23.8026429 176.970652,25.4497857 176.819866,27.3590714 L184.725737,27.3590714 Z M190.3441,31.1790714 L176.820581,31.1790714 C177.009241,33.2376429 179.068784,34.6969286 181.278397,34.6969286 C183.227173,34.6969286 184.57638,33.8740714 185.40034,32.7512143 L189.67164,35.4455 C187.910095,37.9919286 184.988718,39.4147857 181.204791,39.4147857 C175.585713,39.4147857 170.940666,35.8576429 170.940666,29.5676429 C170.940666,23.4655 175.361321,19.5719286 181.018274,19.5719286 C186.524442,19.5719286 190.382689,23.3526429 190.382689,29.7183571 C190.38126,30.2047857 190.38126,30.7297857 190.3441,31.1790714 L190.3441,31.1790714 Z" id="Fill-44" sketch:type="MSShapeGroup"></path>
            <path d="M207.016175,38.8169286 L207.016175,28.6312143 C207.016175,26.5719286 206.455196,24.6997857 204.244153,24.6997857 C202.072415,24.6997857 200.947599,26.5719286 200.947599,28.7069286 L200.947599,38.8162143 L194.767542,38.8162143 L194.767542,20.1705 L200.724637,20.1705 L200.724637,22.7540714 L200.798958,22.7540714 C201.660078,21.1055 203.79537,19.6447857 206.380875,19.6447857 C211.401099,19.6447857 213.19766,23.5397857 213.19766,27.2833571 L213.19766,38.8155 L207.016175,38.8155 L207.016175,38.8169286 Z" id="Fill-45" sketch:type="MSShapeGroup"></path>
            <path d="M229.380933,25.6738571 C228.408332,24.7381429 226.984089,23.9902857 225.485525,23.9902857 C224.324263,23.9902857 223.164431,24.4017143 223.164431,25.4867143 C223.164431,26.5352857 224.174907,26.8352857 226.573181,27.3588571 C229.420238,27.996 232.528846,29.4181429 232.528846,33.051 C232.528846,37.7688571 228.369742,39.4152857 224.54937,39.4152857 C221.516511,39.4152857 218.369313,38.4038571 216.420537,36.5317143 L219.867877,32.9002857 C220.954103,34.0995714 222.639898,34.9981429 224.437888,34.9981429 C225.449794,34.9981429 226.648931,34.5867143 226.648931,33.3881429 C226.648931,32.2274286 225.48624,31.8531429 222.940754,31.2538571 C220.355964,30.6552857 217.508193,29.3438571 217.508193,25.8252857 C217.508193,21.3695714 221.703742,19.5724286 225.261848,19.5724286 C228.035299,19.5724286 230.918801,20.4695714 232.753952,22.1924286 L229.380933,25.6738571 Z" id="Fill-46" sketch:type="MSShapeGroup"></path>
            <path d="M249.498204,27.3590714 C249.498204,25.4126429 248.26405,23.8026429 245.828617,23.8026429 C243.468218,23.8026429 241.745977,25.4497857 241.593763,27.3590714 L249.498204,27.3590714 Z M255.118711,31.1790714 L241.593763,31.1790714 C241.782423,33.2376429 243.843395,34.6969286 246.053008,34.6969286 C248.001784,34.6969286 249.349562,33.8740714 250.173522,32.7512143 L254.444822,35.4455 C252.683277,37.9919286 249.7619,39.4147857 245.977973,39.4147857 C240.360324,39.4147857 235.713848,35.8576429 235.713848,29.5676429 C235.713848,23.4655 240.134503,19.5719286 245.791456,19.5719286 C251.297624,19.5719286 255.156586,23.3526429 255.156586,29.7183571 C255.156586,30.2047857 255.156586,30.7297857 255.118711,31.1790714 L255.118711,31.1790714 Z" id="Fill-47" sketch:type="MSShapeGroup"></path>
            <path d="M262.799689,39.1908571 C260.739432,39.1908571 258.977888,37.6187143 258.977888,35.558 C258.977888,33.5365714 260.702272,31.8522857 262.799689,31.8522857 C264.823501,31.8522857 266.547171,33.4608571 266.547171,35.5215714 C266.547171,37.5808571 264.823501,39.1908571 262.799689,39.1908571" id="Fill-48" sketch:type="MSShapeGroup"></path>
            <path d="M271.417252,20.1707143 L277.562292,20.1707143 L277.562292,38.8164286 L271.417252,38.8164286 L271.417252,20.1707143 Z M274.489415,17.5864286 C272.504908,17.5864286 270.967755,16.0521429 270.967755,14.2157143 C270.967755,12.4185714 272.504193,10.8464286 274.489415,10.8464286 C276.438191,10.8464286 278.011075,12.3435714 278.011075,14.2157143 C278.010361,16.1257143 276.437476,17.5864286 274.489415,17.5864286 L274.489415,17.5864286 Z" id="Fill-49" sketch:type="MSShapeGroup"></path>
            <path d="M292.395143,24.6637857 C289.510211,24.6637857 288.012362,27.0216429 288.012362,29.4173571 C288.012362,31.8145 289.548801,34.2480714 292.434447,34.2480714 C295.31795,34.2480714 296.852959,31.8152143 296.852959,29.4173571 C296.852959,27.0209286 295.280075,24.6637857 292.395143,24.6637857 M292.395143,39.4152143 C286.776065,39.4152143 282.056697,35.5223571 282.056697,29.4180714 C282.056697,23.3145 286.776065,19.5723571 292.395143,19.5723571 C298.052096,19.5723571 302.772178,23.3145 302.772178,29.4180714 C302.772178,35.5223571 298.052096,39.4152143 292.395143,39.4152143" id="Fill-50" sketch:type="MSShapeGroup"></path>
        </g>
    </g>
</svg>