<?xml version="1.0" encoding="UTF-8" standalone="no"?>
<svg width="202px" height="202px" viewBox="0 0 202 202" version="1.1" xmlns="http://www.w3.org/2000/svg" xmlns:xlink="http://www.w3.org/1999/xlink" xmlns:sketch="http://www.bohemiancoding.com/sketch/ns">
    <title>Slice 1</title>
    <description>Created with Sketch (http://www.bohemiancoding.com/sketch)</description>
    <defs></defs>
    <g id="Page-1" stroke="none" stroke-width="1" fill="none" fill-rule="evenodd" sketch:type="MSPage">
        <g id="Group" sketch:type="MSLayerGroup">
            <circle id="Oval" fill="#00AEFF" sketch:type="MSShapeGroup" cx="100.572727" cy="100.572727" r="100.572727"></circle>
            <path d="M97.6575758,165.021212 L48.330303,136.542424 C45.8363636,135.10303 44.2969697,132.439394 44.2969697,129.551515 L44.3,72.5969697 C44.3,69.7151515 45.8363636,67.0515152 48.330303,65.6090909 L97.6575758,37.1333333 C100.154545,35.6878788 103.230303,35.6909091 105.727273,37.1333333 L155.054545,65.6090909 C158.909091,67.8393939 160.230303,72.7727273 158.006061,76.6333333 C155.778788,80.4909091 150.842424,81.8090909 146.978788,79.5878788 L105.8,55.8121212 C103.530303,54.5 99.8515152,54.5 97.5818182,55.8121212 L64.5424242,74.8848485 C62.2757576,76.1939394 60.4333333,79.3787879 60.4333333,82.0030303 L60.4333333,120.151515 C60.4333333,122.772727 62.2727273,125.960606 64.5424242,127.269697 L97.5818182,146.342424 C99.8515152,147.651515 103.530303,147.651515 105.8,146.342424 L138.818182,127.275758 C141.090909,125.966667 142.921212,122.781818 142.912121,120.154545 L142.887879,113.887879 C142.878788,111.266667 140.742424,109.145455 138.124242,109.145455 L87.2151515,109.145455 C82.7575758,109.145455 79.1424242,105.530303 79.1424242,101.075758 C79.1424242,96.6212121 82.7575758,93.0060606 87.2151515,93.0060606 L150.906061,93.0060606 C155.351515,93.0060606 158.960606,96.6 158.978788,101.045455 L158.978788,129.521212 C158.990909,132.418182 157.557576,135.093939 155.057576,136.539394 L105.730303,165.018182 C104.478788,165.736364 103.087879,166.10303 101.693939,166.10303 C100.3,166.10303 98.9060606,165.739394 97.6575758,165.021212 L97.6575758,165.021212 Z" id="Shape" fill="#F1F0EB" sketch:type="MSShapeGroup"></path>
        </g>
    </g>
</svg>